#!OML:ASF \\sashay\E\Suitcase\Project 1\Capture day 1\Session 1\Male1.ASF
:FULLY-SPECIFIED
:DEGREES
157
root -0.201557 17.5257 9.96881 5.79713 -2.85484 -3.74562
lowerback 3.21526 -1.17743 1.32908
upperback 1.21928 -1.4976 4.96094
thorax -0.450226 -0.759995 4.42163
lowerneck -11.115 -8.87618 -4.31524
upperneck 33.084 -13.6502 4.33847
head 13.6662 -5.98086 0.377609
rclavicle 1.88845e-014 7.15625e-015
rhumerus -27.9291 -7.47103 -76.3976
rradius 29.6798
rwrist -15.0333
rhand -17.0573 17.0275
rfingers 7.12502
rthumb 9.18004 -12.7527
lclavicle 1.88845e-014 7.15625e-015
lhumerus -33.1142 3.69275 89.4179
lradius 34.3796
lwrist -3.33792
lhand -0.939839 44.4647
lfingers 7.12502
lthumb 24.6899 72.8917
rfemur -5.95803 -0.425122 20.3519
rtibia 14.2852
rfoot -10.7709 -12.872
rtoes 7.59653
lfemur -5.50816 -3.69328 -12.2581
ltibia 16.3648
lfoot -15.2237 7.00575
ltoes -4.48444
158
root -0.200222 17.5274 9.95293 5.8745 -2.88567 -3.97808
lowerback 3.27099 -1.27705 1.77175
upperback 1.50212 -1.62902 5.10551
thorax -0.189357 -0.828056 4.32391
lowerneck -12.9173 -9.8235 -3.72152
upperneck 34.6476 -15.0399 3.37814
head 14.6933 -6.5158 -0.46446
rclavicle -2.18663e-015 -4.13472e-014
rhumerus -27.6511 -6.97941 -76.4212
rradius 29.9858
rwrist -15.1332
rhand -17.2566 16.7903
rfingers 7.12502
rthumb 8.98772 -12.9982
lclavicle -2.18663e-015 -4.13472e-014
lhumerus -33.0658 3.68698 89.4525
lradius 34.9418
lwrist -3.03585
lhand -1.12662 44.7392
lfingers 7.12502
lthumb 24.5108 73.1906
rfemur -6.04557 -0.676488 20.583
rtibia 14.2205
rfoot -10.6373 -12.6364
rtoes 7.69082
lfemur -5.72615 -3.68955 -12.0154
ltibia 16.6216
lfoot -15.2552 7.15601
ltoes -4.98196
159
root -0.204571 17.5313 9.92341 5.89731 -2.86085 -4.1962
lowerback 3.49285 -1.3585 2.23412
upperback 1.84897 -1.7313 5.22027
thorax 0.0403536 -0.879689 4.18709
lowerneck -13.7923 -10.3518 -3.80971
upperneck 35.5303 -15.926 3.38941
head 15.3688 -6.82786 -0.690442
rclavicle -3.57812e-015 3.33958e-014
rhumerus -26.85 -7.22322 -76.3306
rradius 29.9618
rwrist -15.2273
rhand -17.3068 16.5799
rfingers 7.12502
rthumb 8.9393 -13.2107
lclavicle -3.57812e-015 3.33958e-014
lhumerus -32.7096 3.71486 89.4986
lradius 35.3616
lwrist -2.81279
lhand -1.40373 44.6478
lfingers 7.12502
lthumb 24.2452 73.1349
rfemur -6.16871 -1.03786 20.8612
rtibia 14.1495
rfoot -10.3934 -12.3991
rtoes 6.9853
lfemur -6.01372 -3.45876 -11.7267
ltibia 16.9186
lfoot -15.31 6.9124
ltoes -5.3586
160
root -0.214951 17.5307 9.89116 6.05362 -3.17701 -4.08205
lowerback 3.83924 -1.36809 2.16051
upperback 2.02443 -1.73758 5.29701
thorax 0.0326223 -0.885114 4.31656
lowerneck -13.6259 -10.4039 -4.03567
upperneck 35.8342 -16.0489 3.55289
head 15.5316 -6.87689 -0.61191
rclavicle 5.1684e-015 -4.69132e-014
rhumerus -26.543 -7.41696 -76.1583
rradius 29.8972
rwrist -14.7756
rhand -17.6384 17.2941
rfingers 7.12502
rthumb 8.61935 -12.5099
lclavicle 5.1684e-015 -4.69132e-014
lhumerus -32.6531 3.68343 89.5267
lradius 35.8403
lwrist -2.71454
lhand -1.06276 44.2315
lfingers 7.12502
lthumb 24.5721 72.6746
rfemur -6.53424 -0.542746 20.7525
rtibia 14.1275
rfoot -10.2361 -12.5141
rtoes 8.21846
lfemur -6.33774 -3.39574 -11.8209
ltibia 17.0463
lfoot -15.2309 7.22144
ltoes -5.25704
161
root -0.22142 17.5299 9.86852 6.02474 -3.22633 -4.36015
lowerback 4.2489 -1.37023 2.551
upperback 2.25476 -1.71627 5.54455
thorax 0.0370775 -0.87427 4.36321
lowerneck -12.8276 -10.4688 -4.41607
upperneck 35.5346 -16.1802 3.99938
head 15.3082 -6.95865 -0.337279
rclavicle -5.96354e-016 3.18055e-014
rhumerus -26.0835 -7.24325 -75.8475
rradius 29.9795
rwrist -15.077
rhand -17.376 17.0661
rfingers 7.12502
rthumb 8.87255 -12.7273
lclavicle -5.96354e-016 3.18055e-014
lhumerus -32.6913 3.11456 89.9271
lradius 36.4204
lwrist -2.02657
lhand -0.924718 45.1883
lfingers 7.12502
lthumb 24.7044 73.6134
rfemur -6.64401 -0.408207 21.1012
rtibia 14.31
rfoot -10.2464 -12.5812
rtoes 7.24531
lfemur -6.32624 -3.19021 -11.4597
ltibia 17.023
lfoot -15.2062 6.9676
ltoes -5.22181
